<svg width="163" height="163" viewBox="0 0 163 163" fill="none" xmlns="http://www.w3.org/2000/svg">
<path d="M81.5 94.1019C88.533 94.1019 94.2344 88.4006 94.2344 81.3676C94.2344 74.3346 88.533 68.6332 81.5 68.6332C74.467 68.6332 68.7656 74.3346 68.7656 81.3676C68.7656 88.4006 74.467 94.1019 81.5 94.1019Z" fill="#00D8FF"/>
<path d="M81.5 110.565C66.194 110.935 50.9263 108.872 36.2675 104.452C29.496 102.306 23.1803 98.9244 17.6397 94.4789C15.5254 92.9602 13.7647 91.0021 12.4784 88.7389C11.1921 86.4758 10.4106 83.9611 10.1875 81.3676C10.1875 72.9476 19.4377 64.6957 34.9329 59.2963C49.9836 54.512 65.709 52.1933 81.5 52.43C97.0803 52.2123 112.595 54.4891 127.456 59.1741C133.977 61.2531 140.079 64.4712 145.477 68.679C147.556 70.1269 149.29 72.014 150.557 74.2068C151.825 76.3995 152.595 78.8442 152.812 81.3676C152.813 90.1186 142.472 98.9868 125.816 104.498C111.441 108.774 96.4951 110.82 81.5 110.565V110.565ZM81.5 58.5221C66.3925 58.3201 51.3492 60.5245 36.9348 65.0523C22.6723 70.0289 16.2796 76.8341 16.2796 81.3523C16.2796 86.0793 23.1511 93.5111 38.2388 98.671C52.2622 102.878 66.8637 104.836 81.5 104.473C95.8461 104.729 110.147 102.788 123.905 98.7169C139.569 93.5263 146.7 86.0844 146.7 81.3676C146.443 79.7489 145.853 78.2011 144.968 76.822C144.082 75.4429 142.92 74.2624 141.555 73.3551C136.725 69.6221 131.275 66.7701 125.454 64.93C111.237 60.4667 96.3991 58.3034 81.5 58.5221V58.5221Z" fill="#00D8FF"/>
<path d="M52.5675 144.882C50.1913 144.936 47.8431 144.36 45.7623 143.211C38.468 139.003 35.9415 126.87 39.0028 110.748C42.3782 95.3198 48.2266 80.5388 56.3216 66.9777C63.915 53.3728 73.6362 41.0705 85.1166 30.537C90.1755 25.9257 96.0114 22.2472 102.354 19.6721C104.648 18.597 107.15 18.0397 109.684 18.0397C112.217 18.0397 114.72 18.597 117.014 19.6721C124.598 24.0425 127.109 37.4289 123.569 54.6101C120.09 69.2015 114.393 83.173 106.678 96.0376C99.3522 109.482 89.9371 121.677 78.785 132.168C73.5425 136.96 67.4582 140.74 60.8397 143.318C58.1901 144.301 55.3933 144.83 52.5675 144.882V144.882ZM61.5987 70.0034C53.8771 82.989 48.2717 97.121 44.9931 111.869C42.1763 126.717 44.881 135.647 48.8134 137.918C52.8884 140.277 62.7805 138.041 74.7915 127.548C85.4376 117.497 94.424 105.824 101.417 92.9609C108.807 80.6622 114.272 67.3044 117.62 53.3519C120.951 37.1793 118.073 27.277 113.988 24.9237C112.457 24.3371 110.821 24.0744 109.183 24.1525C107.545 24.2305 105.941 24.6475 104.473 25.3771C98.8273 27.7067 93.637 31.014 89.1406 35.1469C78.1721 45.2365 68.8863 57.014 61.6344 70.034L61.5987 70.0034Z" fill="#00D8FF"/>
<path d="M110.417 144.948C103.515 144.948 94.7488 140.771 85.6208 132.921C73.9393 122.292 64.0538 109.844 56.3471 96.0579C48.3536 82.6836 42.5515 68.1164 39.1608 52.9088C37.6902 46.2181 37.4177 39.3196 38.3559 32.5338C38.5728 30.0165 39.3394 27.5774 40.6014 25.3886C41.8635 23.1998 43.5904 21.3145 45.6604 19.8656C53.2348 15.4799 66.0863 19.9879 79.2027 31.6322C90.1064 41.9327 99.3658 53.8445 106.658 66.9523C114.647 80.0144 120.509 94.2626 124.028 109.164C125.562 116.1 125.798 123.261 124.726 130.283C124.47 132.873 123.658 135.376 122.345 137.623C121.031 139.869 119.247 141.805 117.116 143.297C115.069 144.432 112.757 145.001 110.417 144.948V144.948ZM61.6191 92.9915C69.0123 106.166 78.4554 118.08 89.594 128.286C101.05 138.143 110.137 140.261 114.044 137.964C118.119 135.596 121.124 125.928 118.027 110.285C114.634 96.0576 109.011 82.4572 101.366 69.9881C94.4067 57.4429 85.5686 46.0366 75.1583 36.1656C62.811 25.2039 52.7967 22.7538 48.7166 25.1173C47.4449 26.1507 46.4013 27.4366 45.6517 28.8937C44.9021 30.3509 44.4628 31.9476 44.3615 33.5831C43.5516 39.6349 43.8154 45.7821 45.1408 51.7423C48.4024 66.2857 53.967 80.2144 61.6242 93.0017L61.6191 92.9915Z" fill="#00D8FF"/>
</svg>
