<svg width="15" height="15" viewBox="0 0 15 15" fill="none" xmlns="http://www.w3.org/2000/svg">
<path d="M7.5 0.9375C3.87598 0.9375 0.9375 3.87598 0.9375 7.5C0.9375 11.124 3.87598 14.0625 7.5 14.0625C11.124 14.0625 14.0625 11.124 14.0625 7.5C14.0625 3.87598 11.124 0.9375 7.5 0.9375ZM10.6538 5.88428C10.6582 5.95313 10.6582 6.0249 10.6582 6.09521C10.6582 8.24561 9.02051 10.7227 6.02783 10.7227C5.10498 10.7227 4.24951 10.4546 3.52881 9.99316C3.66064 10.0078 3.78662 10.0137 3.92139 10.0137C4.68311 10.0137 5.3833 9.75586 5.94141 9.31934C5.22656 9.30469 4.62598 8.83594 4.4209 8.19141C4.67139 8.22803 4.89697 8.22803 5.15479 8.16211C4.78671 8.08733 4.45587 7.88743 4.21848 7.59636C3.98109 7.3053 3.85179 6.94103 3.85254 6.56543V6.54492C4.06787 6.6665 4.32129 6.74121 4.58643 6.75146C4.36354 6.60292 4.18075 6.40168 4.05426 6.16557C3.92778 5.92947 3.86151 5.6658 3.86133 5.39795C3.86133 5.09473 3.94043 4.81787 4.08252 4.57764C4.49107 5.08057 5.00088 5.49191 5.57881 5.78491C6.15674 6.07791 6.78986 6.24603 7.43701 6.27832C7.20703 5.17236 8.0332 4.27734 9.02637 4.27734C9.49512 4.27734 9.91699 4.47363 10.2144 4.79004C10.582 4.72119 10.9336 4.5835 11.2471 4.39893C11.1255 4.77539 10.8706 5.09326 10.5322 5.29395C10.8604 5.25879 11.1768 5.16797 11.4697 5.04053C11.2485 5.36572 10.9717 5.6543 10.6538 5.88428V5.88428Z" fill="white"/>
</svg>
