<svg width="265" height="60" viewBox="0 0 265 60" fill="none" xmlns="http://www.w3.org/2000/svg">
<g clip-path="url(#clip0_7_4)">
<path d="M132.115 14.9876C121.774 14.9876 114.318 21.7319 114.318 31.8481C114.318 41.9648 122.711 48.7091 133.052 48.7091C139.3 48.7091 144.808 46.2362 148.218 42.0678L141.051 37.9278C139.159 39.9978 136.283 41.206 133.052 41.206C128.565 41.206 124.753 38.8645 123.338 35.1176H149.585C149.791 34.0681 149.913 32.9814 149.913 31.8388C149.913 21.7319 142.457 14.9871 132.115 14.9871V14.9876ZM123.255 28.5698C124.425 24.8322 127.629 22.4809 132.106 22.4809C136.593 22.4809 139.797 24.8322 140.958 28.5698H123.255ZM232.981 14.9871C222.64 14.9871 215.183 21.7319 215.183 31.8481C215.183 41.9648 223.576 48.7091 233.918 48.7091C240.166 48.7091 245.673 46.2362 249.083 42.0678L241.917 37.9278C240.025 39.9978 237.15 41.206 233.918 41.206C229.431 41.206 225.618 38.8645 224.204 35.1176H250.449C250.656 34.0681 250.777 32.9814 250.777 31.8388C250.777 21.7319 243.321 14.9871 232.98 14.9871H232.981ZM224.129 28.5698C225.3 24.8322 228.503 22.4809 232.981 22.4809C237.468 22.4809 240.672 24.8322 241.833 28.5698H224.129ZM187.569 31.8481C187.569 37.4684 191.241 41.2153 196.936 41.2153C200.795 41.2153 203.69 39.464 205.179 36.6067L212.373 40.7565C209.394 45.721 203.812 48.7091 196.936 48.7091C186.586 48.7091 179.139 41.9643 179.139 31.8481C179.139 21.7319 186.595 14.9876 196.936 14.9876C203.812 14.9876 209.385 17.9757 212.373 22.9402L205.179 27.09C203.69 24.2328 200.795 22.4814 196.936 22.4814C191.251 22.4814 187.569 26.2278 187.569 31.8486V31.8481ZM264.829 4.68362V47.7724H256.398V4.68362H264.829ZM34.6129 0L69.2241 59.9498H0.00120544L34.6129 0ZM121.146 4.68362L95.1902 49.6459L69.2334 4.68362H78.9664L95.1902 32.7853L111.414 4.68362H121.146V4.68362ZM176.328 15.9243V25.0009C175.392 24.7293 174.399 24.5421 173.331 24.5421C167.888 24.5421 163.964 28.289 163.964 33.9093V47.7724H155.533V15.9243H163.964V24.5416C163.964 19.7829 169.5 15.9243 176.328 15.9243V15.9243Z" fill="white"/>
</g>
<defs>
<clipPath id="clip0_7_4">
<rect width="264.83" height="60" fill="white"/>
</clipPath>
</defs>
</svg>
